<mxfile host="app.diagrams.net" agent="Mozilla/5.0 (Macintosh; Intel Mac OS X 10_15_7) AppleWebKit/605.1.15 (KHTML, like Gecko) Version/18.3.1 Safari/605.1.15" version="26.1.1">
  <diagram name="Page-1" id="sl0Z7fPfuQKRQQ2DEkUn">
    <mxGraphModel dx="5301" dy="-2156" grid="1" gridSize="10" guides="1" tooltips="1" connect="1" arrows="1" fold="1" page="1" pageScale="1" pageWidth="827" pageHeight="1169" math="0" shadow="0">
      <root>
        <mxCell id="0" />
        <mxCell id="1" parent="0" />
        <mxCell id="4YWZL3nNaygqKFibJjto-1" value="" style="rounded=1;whiteSpace=wrap;html=1;" vertex="1" parent="1">
          <mxGeometry x="-831.85" y="5073" width="555.52" height="772" as="geometry" />
        </mxCell>
        <mxCell id="4YWZL3nNaygqKFibJjto-3" value="" style="rounded=1;whiteSpace=wrap;html=1;" vertex="1" parent="1">
          <mxGeometry x="269.1500000000001" y="5073" width="555.52" height="772" as="geometry" />
        </mxCell>
        <mxCell id="4YWZL3nNaygqKFibJjto-92" style="edgeStyle=orthogonalEdgeStyle;rounded=0;orthogonalLoop=1;jettySize=auto;html=1;exitX=1;exitY=0.5;exitDx=0;exitDy=0;fontSize=11;endArrow=none;startFill=0;strokeWidth=2;" edge="1" parent="1" source="4YWZL3nNaygqKFibJjto-5" target="4YWZL3nNaygqKFibJjto-7">
          <mxGeometry relative="1" as="geometry" />
        </mxCell>
        <mxCell id="4YWZL3nNaygqKFibJjto-93" style="edgeStyle=orthogonalEdgeStyle;rounded=0;orthogonalLoop=1;jettySize=auto;html=1;exitX=0;exitY=0.5;exitDx=0;exitDy=0;strokeWidth=2;endArrow=none;startFill=0;" edge="1" parent="1" source="4YWZL3nNaygqKFibJjto-5" target="4YWZL3nNaygqKFibJjto-6">
          <mxGeometry relative="1" as="geometry" />
        </mxCell>
        <mxCell id="4YWZL3nNaygqKFibJjto-96" style="edgeStyle=orthogonalEdgeStyle;rounded=0;orthogonalLoop=1;jettySize=auto;html=1;exitX=1;exitY=0.75;exitDx=0;exitDy=0;shape=link;strokeWidth=2;dashed=1;" edge="1" parent="1" source="4YWZL3nNaygqKFibJjto-5">
          <mxGeometry relative="1" as="geometry">
            <mxPoint x="310" y="5411" as="targetPoint" />
          </mxGeometry>
        </mxCell>
        <mxCell id="4YWZL3nNaygqKFibJjto-5" value="&lt;h2 style=&quot;line-height: 0%;&quot;&gt;Internet&lt;/h2&gt;" style="image;aspect=fixed;perimeter=ellipsePerimeter;html=1;align=center;shadow=0;dashed=0;spacingTop=3;image=img/lib/active_directory/internet_cloud.svg;" vertex="1" parent="1">
          <mxGeometry x="-56.989999999999995" y="5353" width="126.99" height="80" as="geometry" />
        </mxCell>
        <mxCell id="4YWZL3nNaygqKFibJjto-6" value="&lt;h2 style=&quot;line-height: 0%;&quot;&gt;Firewall&lt;/h2&gt;" style="image;html=1;image=img/lib/clip_art/networking/Firewall_02_128x128.png;labelBackgroundColor=default;" vertex="1" parent="1">
          <mxGeometry x="-361.8499999999999" y="5363" width="60" height="60" as="geometry" />
        </mxCell>
        <mxCell id="4YWZL3nNaygqKFibJjto-7" value="&lt;h2 style=&quot;line-height: 0%;&quot;&gt;Firewall&lt;/h2&gt;" style="image;html=1;image=img/lib/clip_art/networking/Firewall_02_128x128.png;labelBackgroundColor=default;" vertex="1" parent="1">
          <mxGeometry x="314.00000000000006" y="5363" width="60" height="60" as="geometry" />
        </mxCell>
        <mxCell id="4YWZL3nNaygqKFibJjto-9" value="" style="rounded=1;whiteSpace=wrap;html=1;fillColor=#f8cecc;strokeColor=#b85450;" vertex="1" parent="1">
          <mxGeometry x="-460" y="5160" width="138.15" height="125" as="geometry" />
        </mxCell>
        <mxCell id="4YWZL3nNaygqKFibJjto-11" value="&lt;h2&gt;DMZ&lt;/h2&gt;" style="text;html=1;align=center;verticalAlign=middle;whiteSpace=wrap;rounded=0;" vertex="1" parent="1">
          <mxGeometry x="-460" y="5161" width="140" height="30" as="geometry" />
        </mxCell>
        <mxCell id="4YWZL3nNaygqKFibJjto-12" value="" style="rounded=1;whiteSpace=wrap;html=1;fillColor=#f8cecc;strokeColor=#b85450;" vertex="1" parent="1">
          <mxGeometry x="312.97" y="5160" width="150" height="130" as="geometry" />
        </mxCell>
        <mxCell id="4YWZL3nNaygqKFibJjto-14" value="&lt;h2&gt;DMZ&lt;/h2&gt;" style="text;html=1;align=center;verticalAlign=middle;whiteSpace=wrap;rounded=0;" vertex="1" parent="1">
          <mxGeometry x="312.97" y="5161" width="150" height="30" as="geometry" />
        </mxCell>
        <mxCell id="4YWZL3nNaygqKFibJjto-15" value="&lt;h1&gt;SIÈGE - HQ&lt;/h1&gt;" style="text;html=1;align=center;verticalAlign=middle;whiteSpace=wrap;rounded=0;" vertex="1" parent="1">
          <mxGeometry x="-770.33" y="5100" width="157.54" height="30" as="geometry" />
        </mxCell>
        <mxCell id="4YWZL3nNaygqKFibJjto-16" value="&lt;h1&gt;Agence - Vannes&lt;/h1&gt;" style="text;html=1;align=center;verticalAlign=middle;whiteSpace=wrap;rounded=0;" vertex="1" parent="1">
          <mxGeometry x="566.32" y="5100" width="215" height="30" as="geometry" />
        </mxCell>
        <mxCell id="4YWZL3nNaygqKFibJjto-17" value="" style="rounded=1;whiteSpace=wrap;html=1;fillColor=#d5e8d4;strokeColor=#82b366;" vertex="1" parent="1">
          <mxGeometry x="-780" y="5670" width="458.15" height="130" as="geometry" />
        </mxCell>
        <mxCell id="4YWZL3nNaygqKFibJjto-18" value="&lt;span style=&quot;background-color: light-dark(#ffffff, var(--ge-dark-color, #121212));&quot;&gt;Logs&lt;/span&gt;" style="image;aspect=fixed;perimeter=ellipsePerimeter;html=1;align=center;shadow=0;dashed=0;spacingTop=3;image=img/lib/active_directory/windows_server.svg;labelBackgroundColor=none;" vertex="1" parent="1">
          <mxGeometry x="-737.4600000000004" y="5721" width="41" height="50" as="geometry" />
        </mxCell>
        <mxCell id="4YWZL3nNaygqKFibJjto-19" value="&lt;span&gt;SIEM&lt;/span&gt;" style="image;aspect=fixed;perimeter=ellipsePerimeter;html=1;align=center;shadow=0;dashed=0;spacingTop=3;image=img/lib/active_directory/generic_server.svg;" vertex="1" parent="1">
          <mxGeometry x="-622.8500000000006" y="5721" width="28.000000000000004" height="50" as="geometry" />
        </mxCell>
        <mxCell id="4YWZL3nNaygqKFibJjto-20" value="DSI Admin" style="image;aspect=fixed;perimeter=ellipsePerimeter;html=1;align=center;shadow=0;dashed=0;spacingTop=3;image=img/lib/active_directory/generic_server.svg;" vertex="1" parent="1">
          <mxGeometry x="-519.3300000000005" y="5721" width="28.000000000000004" height="50" as="geometry" />
        </mxCell>
        <mxCell id="4YWZL3nNaygqKFibJjto-21" value="&lt;span style=&quot;background-color: light-dark(#ffffff, var(--ge-dark-color, #121212));&quot;&gt;DSI User&lt;/span&gt;" style="verticalLabelPosition=bottom;sketch=0;aspect=fixed;html=1;verticalAlign=top;strokeColor=none;align=center;outlineConnect=0;shape=mxgraph.citrix.thin_client;" vertex="1" parent="1">
          <mxGeometry x="-411.8500000000001" y="5723" width="50" height="50" as="geometry" />
        </mxCell>
        <mxCell id="4YWZL3nNaygqKFibJjto-26" value="&lt;h2&gt;Réseau Supervision&lt;/h2&gt;" style="text;html=1;align=center;verticalAlign=middle;whiteSpace=wrap;rounded=0;" vertex="1" parent="1">
          <mxGeometry x="-780" y="5670" width="460" height="30" as="geometry" />
        </mxCell>
        <mxCell id="4YWZL3nNaygqKFibJjto-27" value="" style="rounded=1;whiteSpace=wrap;html=1;fillColor=#f5f5f5;strokeColor=#666666;fontColor=#333333;" vertex="1" parent="1">
          <mxGeometry x="-780" y="5510" width="220" height="130" as="geometry" />
        </mxCell>
        <mxCell id="4YWZL3nNaygqKFibJjto-28" value="&lt;h2&gt;Réseau Impression&lt;/h2&gt;" style="text;html=1;align=center;verticalAlign=middle;whiteSpace=wrap;rounded=0;" vertex="1" parent="1">
          <mxGeometry x="-780" y="5510" width="221.67" height="30" as="geometry" />
        </mxCell>
        <mxCell id="4YWZL3nNaygqKFibJjto-29" value="&lt;span style=&quot;background-color: light-dark(#ffffff, var(--ge-dark-color, #121212));&quot;&gt;Serveur d&#39;impression&lt;/span&gt;" style="image;aspect=fixed;perimeter=ellipsePerimeter;html=1;align=center;shadow=0;dashed=0;spacingTop=3;image=img/lib/active_directory/windows_server.svg;labelBackgroundColor=none;" vertex="1" parent="1">
          <mxGeometry x="-727.3900000000003" y="5557.5" width="41" height="50" as="geometry" />
        </mxCell>
        <mxCell id="4YWZL3nNaygqKFibJjto-30" value="Imprimante" style="image;html=1;image=img/lib/clip_art/computers/Printer_Commercial_128x128.png" vertex="1" parent="1">
          <mxGeometry x="-634.7800000000001" y="5555" width="51.85" height="55" as="geometry" />
        </mxCell>
        <mxCell id="4YWZL3nNaygqKFibJjto-31" value="" style="rounded=1;whiteSpace=wrap;html=1;fillColor=#dae8fc;strokeColor=#6c8ebf;" vertex="1" parent="1">
          <mxGeometry x="-546.0699999999999" y="5510" width="220" height="130" as="geometry" />
        </mxCell>
        <mxCell id="4YWZL3nNaygqKFibJjto-36" value="&lt;h2&gt;LAN WEB&lt;/h2&gt;" style="text;html=1;align=center;verticalAlign=middle;whiteSpace=wrap;rounded=0;" vertex="1" parent="1">
          <mxGeometry x="-550" y="5510" width="219.08" height="30" as="geometry" />
        </mxCell>
        <mxCell id="4YWZL3nNaygqKFibJjto-38" value="" style="rounded=1;whiteSpace=wrap;html=1;fillColor=#ffe6cc;strokeColor=#d79b00;" vertex="1" parent="1">
          <mxGeometry x="-780" y="5160" width="290" height="130" as="geometry" />
        </mxCell>
        <mxCell id="4YWZL3nNaygqKFibJjto-39" value="&lt;h2&gt;Réseau Backup&lt;/h2&gt;" style="text;html=1;align=center;verticalAlign=middle;whiteSpace=wrap;rounded=0;" vertex="1" parent="1">
          <mxGeometry x="-780" y="5160" width="290" height="30" as="geometry" />
        </mxCell>
        <mxCell id="4YWZL3nNaygqKFibJjto-40" value="&lt;span style=&quot;background-color: light-dark(#ffffff, var(--ge-dark-color, #121212));&quot;&gt;SANs pour Backup&lt;/span&gt;" style="verticalLabelPosition=bottom;sketch=0;aspect=fixed;html=1;verticalAlign=top;strokeColor=none;align=center;outlineConnect=0;shape=mxgraph.citrix.chassis;" vertex="1" parent="1">
          <mxGeometry x="-737.4599999999998" y="5210" width="38.73" height="50" as="geometry" />
        </mxCell>
        <mxCell id="4YWZL3nNaygqKFibJjto-41" value="&lt;span style=&quot;background-color: light-dark(#ffffff, var(--ge-dark-color, #121212));&quot;&gt;Tape storage&lt;/span&gt;" style="outlineConnect=0;dashed=0;verticalLabelPosition=bottom;verticalAlign=top;align=center;html=1;shape=mxgraph.aws3.tape_storage;fillColor=#7D7C7C;gradientColor=none;" vertex="1" parent="1">
          <mxGeometry x="-642.78" y="5217.75" width="47.93" height="24.5" as="geometry" />
        </mxCell>
        <mxCell id="4YWZL3nNaygqKFibJjto-55" value="" style="rounded=1;whiteSpace=wrap;html=1;fillColor=#d5e8d4;strokeColor=#82b366;" vertex="1" parent="1">
          <mxGeometry x="312.97" y="5670" width="458.15" height="130" as="geometry" />
        </mxCell>
        <mxCell id="4YWZL3nNaygqKFibJjto-60" value="&lt;h2&gt;LAN PC&lt;/h2&gt;" style="text;html=1;align=center;verticalAlign=middle;whiteSpace=wrap;rounded=0;" vertex="1" parent="1">
          <mxGeometry x="312.97" y="5670" width="460" height="30" as="geometry" />
        </mxCell>
        <mxCell id="4YWZL3nNaygqKFibJjto-61" value="" style="rounded=1;whiteSpace=wrap;html=1;fillColor=#f5f5f5;strokeColor=#666666;fontColor=#333333;" vertex="1" parent="1">
          <mxGeometry x="312.97" y="5510" width="220" height="130" as="geometry" />
        </mxCell>
        <mxCell id="4YWZL3nNaygqKFibJjto-62" value="&lt;h2&gt;Réseau Impression&lt;/h2&gt;" style="text;html=1;align=center;verticalAlign=middle;whiteSpace=wrap;rounded=0;" vertex="1" parent="1">
          <mxGeometry x="312.97" y="5510" width="221.67" height="30" as="geometry" />
        </mxCell>
        <mxCell id="4YWZL3nNaygqKFibJjto-63" value="&lt;span style=&quot;background-color: light-dark(#ffffff, var(--ge-dark-color, #121212));&quot;&gt;Serveur d&#39;impression&lt;/span&gt;" style="image;aspect=fixed;perimeter=ellipsePerimeter;html=1;align=center;shadow=0;dashed=0;spacingTop=3;image=img/lib/active_directory/windows_server.svg;labelBackgroundColor=none;" vertex="1" parent="1">
          <mxGeometry x="365.5799999999997" y="5557.5" width="41" height="50" as="geometry" />
        </mxCell>
        <mxCell id="4YWZL3nNaygqKFibJjto-64" value="Imprimante" style="image;html=1;image=img/lib/clip_art/computers/Printer_Commercial_128x128.png" vertex="1" parent="1">
          <mxGeometry x="458.18999999999994" y="5555" width="51.85" height="55" as="geometry" />
        </mxCell>
        <mxCell id="4YWZL3nNaygqKFibJjto-65" value="" style="rounded=1;whiteSpace=wrap;html=1;fillColor=#dae8fc;strokeColor=#6c8ebf;" vertex="1" parent="1">
          <mxGeometry x="551.1200000000001" y="5510" width="220" height="130" as="geometry" />
        </mxCell>
        <mxCell id="4YWZL3nNaygqKFibJjto-66" value="&lt;h2&gt;LAN WEB&lt;/h2&gt;" style="text;html=1;align=center;verticalAlign=middle;whiteSpace=wrap;rounded=0;" vertex="1" parent="1">
          <mxGeometry x="542.97" y="5510" width="219.08" height="30" as="geometry" />
        </mxCell>
        <mxCell id="4YWZL3nNaygqKFibJjto-69" value="Client" style="verticalLabelPosition=bottom;sketch=0;aspect=fixed;html=1;verticalAlign=top;strokeColor=none;align=center;outlineConnect=0;shape=mxgraph.citrix.laptop_2;labelBackgroundColor=default;" vertex="1" parent="1">
          <mxGeometry x="387.03" y="5721" width="53.93" height="40.22" as="geometry" />
        </mxCell>
        <mxCell id="4YWZL3nNaygqKFibJjto-70" value="Client" style="verticalLabelPosition=bottom;sketch=0;aspect=fixed;html=1;verticalAlign=top;strokeColor=none;align=center;outlineConnect=0;shape=mxgraph.citrix.desktop;labelBackgroundColor=default;" vertex="1" parent="1">
          <mxGeometry x="634.4" y="5711.67" width="45" height="49.55" as="geometry" />
        </mxCell>
        <mxCell id="4YWZL3nNaygqKFibJjto-71" value="" style="rounded=1;whiteSpace=wrap;html=1;fillColor=#ffe6cc;strokeColor=#d79b00;" vertex="1" parent="1">
          <mxGeometry x="480" y="5161" width="291.3" height="130" as="geometry" />
        </mxCell>
        <mxCell id="4YWZL3nNaygqKFibJjto-72" value="&lt;h2&gt;Réseau Backup&lt;/h2&gt;" style="text;html=1;align=center;verticalAlign=middle;whiteSpace=wrap;rounded=0;" vertex="1" parent="1">
          <mxGeometry x="480" y="5161" width="292.97" height="30" as="geometry" />
        </mxCell>
        <mxCell id="4YWZL3nNaygqKFibJjto-73" value="&lt;span style=&quot;background-color: light-dark(#ffffff, var(--ge-dark-color, #121212));&quot;&gt;SANs pour Backup&lt;/span&gt;" style="verticalLabelPosition=bottom;sketch=0;aspect=fixed;html=1;verticalAlign=top;strokeColor=none;align=center;outlineConnect=0;shape=mxgraph.citrix.chassis;" vertex="1" parent="1">
          <mxGeometry x="542.9700000000003" y="5211" width="38.73" height="50" as="geometry" />
        </mxCell>
        <mxCell id="4YWZL3nNaygqKFibJjto-75" value="" style="rounded=1;whiteSpace=wrap;html=1;" vertex="1" parent="1">
          <mxGeometry x="-130" y="4780" width="260" height="215" as="geometry" />
        </mxCell>
        <mxCell id="4YWZL3nNaygqKFibJjto-95" style="edgeStyle=orthogonalEdgeStyle;rounded=0;orthogonalLoop=1;jettySize=auto;html=1;exitX=0.5;exitY=0;exitDx=0;exitDy=0;strokeWidth=2;strokeColor=default;endArrow=none;endFill=1;startFill=1;startArrow=classic;" edge="1" parent="1" source="4YWZL3nNaygqKFibJjto-5" target="4YWZL3nNaygqKFibJjto-75">
          <mxGeometry relative="1" as="geometry">
            <mxPoint x="6" y="5000" as="targetPoint" />
            <Array as="points">
              <mxPoint x="7" y="5090" />
              <mxPoint x="7" y="5090" />
            </Array>
          </mxGeometry>
        </mxCell>
        <mxCell id="4YWZL3nNaygqKFibJjto-78" value="&lt;h1&gt;Cloud Provider&lt;br&gt;&lt;/h1&gt;" style="text;html=1;align=center;verticalAlign=middle;whiteSpace=wrap;rounded=0;" vertex="1" parent="1">
          <mxGeometry x="-130" y="4796" width="260" height="30" as="geometry" />
        </mxCell>
        <mxCell id="4YWZL3nNaygqKFibJjto-97" style="edgeStyle=orthogonalEdgeStyle;rounded=0;orthogonalLoop=1;jettySize=auto;html=1;shape=link;strokeWidth=2;dashed=1;entryX=0;entryY=0.75;entryDx=0;entryDy=0;" edge="1" parent="1" source="4YWZL3nNaygqKFibJjto-6" target="4YWZL3nNaygqKFibJjto-5">
          <mxGeometry relative="1" as="geometry">
            <mxPoint x="-301.85" y="5410" as="sourcePoint" />
            <mxPoint x="-90" y="5430" as="targetPoint" />
            <Array as="points">
              <mxPoint x="-240" y="5411" />
              <mxPoint x="-240" y="5411" />
            </Array>
          </mxGeometry>
        </mxCell>
        <mxCell id="4YWZL3nNaygqKFibJjto-98" value="" style="rounded=1;whiteSpace=wrap;html=1;fillColor=#e1d5e7;strokeColor=#9673a6;" vertex="1" parent="1">
          <mxGeometry x="-780" y="5346" width="383.16" height="130" as="geometry" />
        </mxCell>
        <mxCell id="4YWZL3nNaygqKFibJjto-99" value="" style="rounded=1;whiteSpace=wrap;html=1;fillColor=#e1d5e7;strokeColor=#9673a6;" vertex="1" parent="1">
          <mxGeometry x="389.81" y="5343" width="383.16" height="130" as="geometry" />
        </mxCell>
        <mxCell id="4YWZL3nNaygqKFibJjto-101" value="&lt;h2&gt;Réseau Serveur&lt;/h2&gt;" style="text;html=1;align=center;verticalAlign=middle;whiteSpace=wrap;rounded=0;" vertex="1" parent="1">
          <mxGeometry x="-780" y="5346" width="380" height="30" as="geometry" />
        </mxCell>
        <mxCell id="4YWZL3nNaygqKFibJjto-102" value="Active Directory" style="image;aspect=fixed;perimeter=ellipsePerimeter;html=1;align=center;shadow=0;dashed=0;spacingTop=3;image=img/lib/active_directory/windows_server_2.svg;labelBackgroundColor=default;" vertex="1" parent="1">
          <mxGeometry x="-652.7900000000001" y="5391.25" width="40" height="50" as="geometry" />
        </mxCell>
        <mxCell id="4YWZL3nNaygqKFibJjto-103" value="BDD" style="image;aspect=fixed;perimeter=ellipsePerimeter;html=1;align=center;shadow=0;dashed=0;spacingTop=3;image=img/lib/active_directory/sql_server.svg;labelBackgroundColor=default;" vertex="1" parent="1">
          <mxGeometry x="-750.0000000000001" y="5390" width="40.43" height="52.5" as="geometry" />
        </mxCell>
        <mxCell id="4YWZL3nNaygqKFibJjto-104" value="Serveur de fichier" style="image;aspect=fixed;perimeter=ellipsePerimeter;html=1;align=center;shadow=0;dashed=0;spacingTop=3;image=img/lib/active_directory/windows_server.svg;labelBackgroundColor=default;" vertex="1" parent="1">
          <mxGeometry x="-550.0000000000001" y="5391.25" width="41" height="50" as="geometry" />
        </mxCell>
        <mxCell id="4YWZL3nNaygqKFibJjto-105" value="&lt;span&gt;SSO&lt;/span&gt;" style="image;aspect=fixed;perimeter=ellipsePerimeter;html=1;align=center;shadow=0;dashed=0;spacingTop=3;image=img/lib/active_directory/generic_server.svg;" vertex="1" parent="1">
          <mxGeometry x="-456.28000000000014" y="5391.25" width="28.000000000000004" height="50" as="geometry" />
        </mxCell>
        <mxCell id="4YWZL3nNaygqKFibJjto-107" value="Active Directory" style="image;aspect=fixed;perimeter=ellipsePerimeter;html=1;align=center;shadow=0;dashed=0;spacingTop=3;image=img/lib/active_directory/windows_server_2.svg;labelBackgroundColor=default;" vertex="1" parent="1">
          <mxGeometry x="517.7399999999999" y="5390" width="40" height="50" as="geometry" />
        </mxCell>
        <mxCell id="4YWZL3nNaygqKFibJjto-108" value="BDD" style="image;aspect=fixed;perimeter=ellipsePerimeter;html=1;align=center;shadow=0;dashed=0;spacingTop=3;image=img/lib/active_directory/sql_server.svg;labelBackgroundColor=default;" vertex="1" parent="1">
          <mxGeometry x="420.52999999999986" y="5388.75" width="40.43" height="52.5" as="geometry" />
        </mxCell>
        <mxCell id="4YWZL3nNaygqKFibJjto-109" value="Serveur de fichier" style="image;aspect=fixed;perimeter=ellipsePerimeter;html=1;align=center;shadow=0;dashed=0;spacingTop=3;image=img/lib/active_directory/windows_server.svg;labelBackgroundColor=default;" vertex="1" parent="1">
          <mxGeometry x="620.5299999999999" y="5390" width="41" height="50" as="geometry" />
        </mxCell>
        <mxCell id="4YWZL3nNaygqKFibJjto-110" value="&lt;span&gt;SSO&lt;/span&gt;" style="image;aspect=fixed;perimeter=ellipsePerimeter;html=1;align=center;shadow=0;dashed=0;spacingTop=3;image=img/lib/active_directory/generic_server.svg;" vertex="1" parent="1">
          <mxGeometry x="714.2499999999998" y="5390" width="28.000000000000004" height="50" as="geometry" />
        </mxCell>
        <mxCell id="4YWZL3nNaygqKFibJjto-111" value="&lt;h2&gt;Réseau Serveur&lt;/h2&gt;" style="text;html=1;align=center;verticalAlign=middle;whiteSpace=wrap;rounded=0;" vertex="1" parent="1">
          <mxGeometry x="391.3900000000001" y="5346" width="380" height="30" as="geometry" />
        </mxCell>
        <mxCell id="4YWZL3nNaygqKFibJjto-112" value="&lt;span&gt;Backup Servers&lt;/span&gt;" style="image;aspect=fixed;perimeter=ellipsePerimeter;html=1;align=center;shadow=0;dashed=0;spacingTop=3;image=img/lib/active_directory/database_server.svg;labelBackgroundColor=default;" vertex="1" parent="1">
          <mxGeometry x="-565" y="5204" width="45.92" height="56" as="geometry" />
        </mxCell>
        <mxCell id="4YWZL3nNaygqKFibJjto-113" value="&lt;span&gt;Backup Servers&lt;/span&gt;" style="image;aspect=fixed;perimeter=ellipsePerimeter;html=1;align=center;shadow=0;dashed=0;spacingTop=3;image=img/lib/active_directory/database_server.svg;labelBackgroundColor=default;" vertex="1" parent="1">
          <mxGeometry x="679.4" y="5207" width="41" height="50" as="geometry" />
        </mxCell>
        <mxCell id="4YWZL3nNaygqKFibJjto-115" value="Nginx Load Balancer" style="image;html=1;image=img/lib/clip_art/networking/Cloud_Server_128x128.png" vertex="1" parent="1">
          <mxGeometry x="-63.18999999999997" y="4850" width="127.38" height="88" as="geometry" />
        </mxCell>
        <mxCell id="4YWZL3nNaygqKFibJjto-118" value="&lt;div&gt;Webserver&lt;/div&gt;" style="image;aspect=fixed;perimeter=ellipsePerimeter;html=1;align=center;shadow=0;dashed=0;spacingTop=3;image=img/lib/active_directory/web_server.svg;labelBackgroundColor=default;" vertex="1" parent="1">
          <mxGeometry x="-519.3299999999999" y="5560" width="40" height="50" as="geometry" />
        </mxCell>
        <mxCell id="4YWZL3nNaygqKFibJjto-119" value="Mail Server" style="image;aspect=fixed;perimeter=ellipsePerimeter;html=1;align=center;shadow=0;dashed=0;spacingTop=3;image=img/lib/active_directory/windows_server_2.svg;labelBackgroundColor=default;" vertex="1" parent="1">
          <mxGeometry x="-450.00000000000006" y="5560" width="40" height="50" as="geometry" />
        </mxCell>
        <mxCell id="4YWZL3nNaygqKFibJjto-120" value="&lt;span&gt;Bastion&lt;/span&gt;" style="image;aspect=fixed;perimeter=ellipsePerimeter;html=1;align=center;shadow=0;dashed=0;spacingTop=3;image=img/lib/active_directory/generic_server.svg;" vertex="1" parent="1">
          <mxGeometry x="-377.8500000000002" y="5560" width="28.000000000000004" height="50" as="geometry" />
        </mxCell>
        <mxCell id="4YWZL3nNaygqKFibJjto-121" value="&lt;div&gt;Webserver&lt;/div&gt;" style="image;aspect=fixed;perimeter=ellipsePerimeter;html=1;align=center;shadow=0;dashed=0;spacingTop=3;image=img/lib/active_directory/web_server.svg;labelBackgroundColor=default;" vertex="1" parent="1">
          <mxGeometry x="576.3800000000001" y="5560" width="40" height="50" as="geometry" />
        </mxCell>
        <mxCell id="4YWZL3nNaygqKFibJjto-122" value="Mail Server" style="image;aspect=fixed;perimeter=ellipsePerimeter;html=1;align=center;shadow=0;dashed=0;spacingTop=3;image=img/lib/active_directory/windows_server_2.svg;labelBackgroundColor=default;" vertex="1" parent="1">
          <mxGeometry x="645.71" y="5560" width="40" height="50" as="geometry" />
        </mxCell>
        <mxCell id="4YWZL3nNaygqKFibJjto-123" value="&lt;span&gt;Bastion&lt;/span&gt;" style="image;aspect=fixed;perimeter=ellipsePerimeter;html=1;align=center;shadow=0;dashed=0;spacingTop=3;image=img/lib/active_directory/generic_server.svg;" vertex="1" parent="1">
          <mxGeometry x="717.8599999999999" y="5560" width="28.000000000000004" height="50" as="geometry" />
        </mxCell>
        <mxCell id="4YWZL3nNaygqKFibJjto-124" value="Reverse proxy" style="shadow=0;dashed=0;html=1;labelPosition=center;verticalLabelPosition=bottom;verticalAlign=top;align=center;outlineConnect=0;shape=mxgraph.veeam.3d.proxy;labelBackgroundColor=default;" vertex="1" parent="1">
          <mxGeometry x="-413.92" y="5202" width="46" height="46" as="geometry" />
        </mxCell>
        <mxCell id="4YWZL3nNaygqKFibJjto-125" value="Reverse proxy" style="shadow=0;dashed=0;html=1;labelPosition=center;verticalLabelPosition=bottom;verticalAlign=top;align=center;outlineConnect=0;shape=mxgraph.veeam.3d.proxy;labelBackgroundColor=default;" vertex="1" parent="1">
          <mxGeometry x="364.96999999999997" y="5209" width="46" height="46" as="geometry" />
        </mxCell>
      </root>
    </mxGraphModel>
  </diagram>
</mxfile>
